<?xml version="1.0" encoding="UTF-8"?>
<svg width="54px" height="22px" viewBox="0 0 54 22" version="1.1" xmlns="http://www.w3.org/2000/svg" xmlns:xlink="http://www.w3.org/1999/xlink">
    <!-- Generator: Sketch 59 (86127) - https://sketch.com -->
    <title>delivery-icon</title>
    <desc>Created with Sketch.</desc>
    <g id="delivery-icon" stroke="none" stroke-width="1" fill="none" fill-rule="evenodd">
        <g fill="#59452C">
            <path d="M16.0800525,15.5833333 C17.856206,15.5833333 19.296063,17.0197531 19.296063,18.7916667 C19.296063,20.5635802 17.856206,22 16.0800525,22 C14.3038989,22 12.864042,20.5635802 12.864042,18.7916667 C12.864042,17.0197531 14.3038989,15.5833333 16.0800525,15.5833333 Z M16.0800525,16.9583333 C15.0651076,16.9583333 14.2423322,17.7791446 14.2423322,18.7916667 C14.2423322,19.8041887 15.0651076,20.625 16.0800525,20.625 C17.0949974,20.625 17.9177728,19.8041887 17.9177728,18.7916667 C17.9177728,17.7791446 17.0949974,16.9583333 16.0800525,16.9583333 Z M35.9616963,0 C37.0662658,1.53715886e-15 37.9616963,0.8954305 37.9616963,2 C37.9616963,2.09805444 37.9544853,2.19597613 37.9401217,2.29297283 L35.681843,17.5429728 C35.5366142,18.5236931 34.6948327,19.25 33.7034177,19.25 L20.214923,19.2510053 C20.2149231,19.2506702 20.2149231,19.2503351 20.2149231,19.25 C20.2149231,16.9718254 18.3636785,15.125 16.0800525,15.125 C13.7964265,15.125 11.9451819,16.9718254 11.9451819,19.25 L11.945,19.25 L7.20911312,19.25 L7.184,19.249 L1.375,19.25 C0.615608469,19.25 7.198426e-15,18.6343915 7.10542736e-15,17.875 C7.01321614e-15,17.1220383 0.60522786,16.5104351 1.35574185,16.5001321 L11.3265606,16.5 C12.0859522,16.5 12.7015606,15.8843915 12.7015606,15.125 C12.7015606,14.4102786 12.1562466,13.822922 11.4589823,13.7562944 L11.3265606,13.75 L3.41115287,13.75 C2.65176134,13.75 2.03615287,13.1343915 2.03615287,12.375 C2.03615287,11.6156085 2.65176134,11 3.41115287,11 L14.1895944,11 C14.9489859,11 15.5645944,10.3843915 15.5645944,9.625 C15.5645944,8.91027856 15.0192803,8.32292205 14.322016,8.25629436 L14.1895944,8.25 L9.192,8.25 L9.192,8.249 L5.44730574,8.25 C4.6879142,8.25 4.07230574,7.63439153 4.07230574,6.875 C4.07230574,6.11560847 4.6879142,5.5 5.44730574,5.5 L17.4616329,5.5 C18.2210245,5.5 18.8366329,4.88439153 18.8366329,4.125 C18.8366329,3.41027856 18.2913188,2.82292205 17.5940546,2.75629436 L17.4616329,2.75 L8.70515032,2.75 C7.94575879,2.75 7.33015032,2.13439153 7.33015032,1.375 C7.33015032,0.615608469 7.94575879,1.39497961e-16 8.70515032,0 L35.9616963,0 Z" id="truck-body-with-hole"></path>
            <g id="front-of-truck" transform="translate(38.000000, 3.000000)">
                <path d="M7.52941176,12.6666667 C9.34870271,12.6666667 10.8235294,14.0844316 10.8235294,15.8333333 C10.8235294,17.582235 9.34870271,19 7.52941176,19 C5.71012082,19 4.23529412,17.582235 4.23529412,15.8333333 C4.23529412,14.0844316 5.71012082,12.6666667 7.52941176,12.6666667 Z M7.52941176,14.0238095 C6.48981694,14.0238095 5.64705882,14.8339609 5.64705882,15.8333333 C5.64705882,16.8327057 6.48981694,17.6428571 7.52941176,17.6428571 C8.56900659,17.6428571 9.41176471,16.8327057 9.41176471,15.8333333 C9.41176471,14.8339609 8.56900659,14.0238095 7.52941176,14.0238095 Z" id="front-wheel"></path>
                <path d="M9.81054049,-1.42108547e-14 C10.9103563,3.62274998e-06 11.9220037,0.601814 12.4468704,1.56830762 C14.6984059,5.71430321 15.8241736,8.05661337 15.8241736,8.5952381 C15.8241736,9.5 14.4124089,15.3809524 13.4712324,15.3809524 L11.4837463,15.380172 C11.0554662,13.5674314 9.36890787,12.2142857 7.35358538,12.2142857 C5.33826288,12.2142857 3.65170454,13.5674314 3.22342444,15.380172 L3.21370241,15.3809524 C1.55684816,15.3809524 0.213702414,14.0378066 0.213702414,12.3809524 C0.213702414,12.2591382 0.221121752,12.1374371 0.235919221,12.0165251 L1.38397968,2.6355727 C1.56812697,1.13088109 2.84584499,-1.30442067e-14 4.36176288,-1.42108547e-14 L9.81054049,-1.42108547e-14 Z M10.0800106,1.35714286 L7.64705882,1.35714286 C6.54248932,1.35714286 5.64705882,2.25257336 5.64705882,3.35714286 L5.64705882,3.35714286 L5.64705882,4.78571429 C5.64705882,5.89028379 6.54248932,6.78571429 7.64705882,6.78571429 L7.64705882,6.78571429 L11.0581656,6.78571429 C11.3565226,6.78571429 11.6504885,6.71383563 11.9151824,6.57616202 C12.8251912,6.10284474 13.1791996,4.98143738 12.7058824,4.07142857 L12.7058824,4.07142857 L11.8543543,2.43426442 C11.5100967,1.77238826 10.8260624,1.35714286 10.0800106,1.35714286 L10.0800106,1.35714286 Z" id="truck-head"></path>
            </g>
        </g>
    </g>
</svg>